<svg xmlns="http://www.w3.org/2000/svg" aria-hidden="true" style="position:absolute;width:0;height:0;overflow:hidden"><defs><symbol id="icon-admin" viewBox="0 0 32 32"><path fill="none" stroke="currentColor" stroke-linecap="round" stroke-linejoin="round" stroke-width="2.783" d="M2.212 24.228a2.76 2.76 0 0 0-.821 1.967v3.022c0 .369.153.723.404.984.264.262.612.408.988.408h4.174c.376 0 .723-.146.988-.408.25-.26.404-.615.404-.984v-1.391c0-.369.153-.722.404-.984.264-.26.612-.408.988-.408h1.391c.376 0 .723-.146.988-.408.25-.26.404-.615.404-.984v-1.391c0-.369.153-.722.404-.984.264-.26.612-.408.988-.408h.237a2.82 2.82 0 0 0 1.976-.815l1.127-1.133a9.044 9.044 0 0 0 5.969-.007 9.016 9.016 0 0 0 4.661-3.727 9.031 9.031 0 0 0 1.336-5.821 9.02 9.02 0 0 0-2.602-5.379c-1.447-1.448-3.339-2.362-5.37-2.592s-4.09.238-5.83 1.326a9.018 9.018 0 0 0-3.715 4.665 9.053 9.053 0 0 0-.014 5.97l-9.475 9.48z" /></symbol><symbol id="icon-arrow-down" viewBox="0 0 32 32"><path fill="none" stroke="#fdd261" stroke-linecap="round" stroke-linejoin="round" stroke-width="4.571" d="M16 3.817v24.366m0 0L3.817 16M16 28.183 28.183 16" style="stroke:var(--color2, #fdd261)"/></symbol><symbol id="icon-arrow-left" viewBox="0 0 44 32"><path fill="none" stroke="currentColor" stroke-linecap="round" stroke-linejoin="round" stroke-width="3" d="M41.12 15.93H2.72m0 0 14.4-14.4m-14.4 14.4 14.4 14.4" /></symbol><symbol id="icon-arrow-right" viewBox="0 0 44 32"><path fill="none" stroke="currentColor" stroke-linecap="round" stroke-linejoin="round" stroke-width="3" d="M3.42 15.93h38.4m0 0-14.4 14.4m14.4-14.4-14.4-14.4" /></symbol><symbol id="icon-arrow-up" viewBox="0 0 32 32"><path fill="none" stroke="#3bb979" stroke-linecap="round" stroke-linejoin="round" stroke-width="4.571" d="M16 28.183V3.817m0 0L28.19 16M16 3.817 3.808 16" style="stroke:var(--color4, #3bb979)"/></symbol><symbol id="icon-attention" viewBox="0 0 32 32"><path fill="none" stroke="#fdd261" stroke-linecap="round" stroke-linejoin="round" stroke-width="2.182" d="M16 10.182V16m0 5.818h.015M16 30.545c8.029 0 14.545-6.512 14.545-14.545S24.029 1.455 16 1.455 1.455 7.967 1.455 16 7.971 30.545 16 30.545z" style="stroke:var(--color2, #fdd261)"/></symbol><symbol id="icon-brokers" viewBox="0 0 35 32"><path fill="none" stroke="currentColor" stroke-linecap="round" stroke-linejoin="round" stroke-width="3.2" d="M27.2 30.4a12.8 12.8 0 0 0-12.8-12.8m0 0A12.8 12.8 0 0 0 1.6 30.4m12.8-12.8a8 8 0 1 0 0-16 8 8 0 0 0 0 16zm19.2 11.2c0-5.392-3.2-10.4-6.4-12.8a7.993 7.993 0 0 0 2.041-10.546 7.99 7.99 0 0 0-2.76-2.734" /></symbol><symbol id="icon-button-check" viewBox="0 0 32 32"><path fill="none" stroke="#3bb979" stroke-linecap="round" stroke-linejoin="round" stroke-width="2.909" d="m11.636 16 2.909 2.909 5.818-5.818M16 30.545c8.029 0 14.545-6.516 14.545-14.545S24.029 1.455 16 1.455 1.455 7.971 1.455 16 7.971 30.545 16 30.545z" style="stroke:var(--color4, #3bb979)"/></symbol><symbol id="icon-check" viewBox="0 0 38 32"><path fill="none" stroke="currentColor" stroke-linecap="round" stroke-linejoin="round" stroke-width="6.4" d="m3.2 16 10.666 10.656L35.2 5.344" /></symbol><symbol id="icon-clip" viewBox="0 0 28 32"><path fill="none" stroke="#e5e7eb" stroke-linecap="round" stroke-linejoin="round" stroke-width="2" d="M15.64 27 26 16.4M19.34 8 8.12 19.44a2.677 2.677 0 0 0 0 3.78c.5.5 1.18.78 1.88.78s1.38-.28 1.88-.78L23.1 11.78c1-1 1.56-2.36 1.56-3.78s-.56-2.78-1.56-3.78-2.36-1.56-3.76-1.56c-1.42 0-2.78.56-3.78 1.56L4.34 15.68C2.84 17.18 2 19.22 2 21.34S2.84 25.5 4.34 27s3.54 2.34 5.66 2.34 4.16-.84 5.66-2.34" style="stroke:var(--color5, #e5e7eb)"/></symbol><symbol id="icon-general-liability" viewBox="0 0 26 32"><path fill="none" stroke="#3bb979" stroke-linecap="round" stroke-linejoin="round" stroke-width="1.655" d="m8.828 16 2.943 2.943 5.885-5.886m7.355 4.414c0 7.357-5.149 11.034-11.27 13.169-.32.108-.669.103-.985-.015-6.135-2.119-11.285-5.796-11.285-13.153V7.174a1.467 1.467 0 0 1 1.47-1.471c2.943 0 6.621-1.766 9.181-4.002a1.724 1.724 0 0 1 2.237 0c2.574 2.251 6.238 4.002 9.181 4.002a1.47 1.47 0 0 1 1.471 1.471v10.298z" style="stroke:var(--color4, #3bb979)"/></symbol><symbol id="icon-goals" viewBox="0 0 29 32"><path fill="none" stroke="currentColor" stroke-linecap="round" stroke-linejoin="round" stroke-width="2.909" d="M14.545 17.455v-16l11.636 5.818-11.636 5.818m12.453.323a13.08 13.08 0 0 1 .208 7.369 13.084 13.084 0 0 1-10.42 9.569A13.084 13.084 0 0 1 3.75 24.857a13.068 13.068 0 0 1-2.289-7.008A13.098 13.098 0 0 1 8.744 5.72m-.014 7.367a7.273 7.273 0 1 0 12.947 2.94"/></symbol><symbol id="icon-group-button" viewBox="0 0 32 32"><path fill="currentColor" d="M16 20c.427 0 .827.169 1.133.469.293.3.467.707.467 1.131s-.173.832-.467 1.132c-.307.3-.707.468-1.133.468s-.827-.168-1.133-.468c-.293-.3-.467-.708-.467-1.132s.173-.831.467-1.131c.307-.3.707-.469 1.133-.469zm0-5.6c.427 0 .827.169 1.133.469.293.3.467.707.467 1.131s-.173.832-.467 1.132c-.307.3-.707.468-1.133.468s-.827-.168-1.133-.468c-.293-.3-.467-.708-.467-1.132s.173-.831.467-1.131c.307-.3.707-.469 1.133-.469zm0-5.6c.427 0 .827.169 1.133.469.293.3.467.707.467 1.131s-.173.832-.467 1.132c-.307.3-.707.468-1.133.468s-.827-.168-1.133-.468c-.293-.3-.467-.708-.467-1.132s.173-.831.467-1.131c.307-.3.707-.469 1.133-.469z"/><path fill="none" stroke="currentColor" stroke-width="2" d="M16 31c8.284 0 15-6.716 15-15S24.284 1 16 1C7.716 1 1 7.716 1 16s6.716 15 15 15z"/></symbol><symbol id="icon-home" viewBox="0 0 31 32"><path fill="none" stroke="currentColor" stroke-linecap="round" stroke-linejoin="round" stroke-width="2.909" d="M18.909 30.546V18.91a1.452 1.452 0 0 0-1.454-1.454h-5.818a1.452 1.452 0 0 0-1.454 1.454v11.636M2.307 13.693a2.907 2.907 0 0 1 1.032-2.223l10.182-8.726a2.908 2.908 0 0 1 3.756 0l10.182 8.726a2.91 2.91 0 0 1 1.032 2.223v13.091a2.913 2.913 0 0 1-2.909 2.909H5.218a2.913 2.913 0 0 1-2.909-2.909V13.693z" /></symbol><symbol id="icon-marine-cargo" viewBox="0 0 33 32"><path fill="none" stroke="#3b82f6" stroke-linecap="round" stroke-linejoin="round" stroke-width="1.655" d="M16.551 13.704v5.607m0-5.607c.412 0 .819.086 1.195.253l12.046 5.354a17.075 17.075 0 0 1-2.383 8.828M16.551 13.704c-.412 0-.819.086-1.195.253L3.31 19.311a17.068 17.068 0 0 0 4.135 11.417m9.106-29.073v4.414m10.299 11.77V9.011a2.942 2.942 0 0 0-2.943-2.943H9.195a2.942 2.942 0 0 0-2.943 2.943v8.828m-4.414 11.77c.883.736 1.766 1.472 3.678 1.472 3.679 0 3.679-2.943 7.357-2.943 1.912 0 2.795.736 3.678 1.471.883.736 1.766 1.472 3.679 1.472 3.678 0 3.678-2.943 7.356-2.943 1.913 0 2.796.736 3.679 1.471" style="stroke:var(--color1, #3b82f6)"/></symbol><symbol id="icon-organizations" viewBox="0 0 32 32"><path fill="none" stroke="currentColor" stroke-linecap="round" stroke-linejoin="round" stroke-width="2.909" d="M7.273 30.545V4.363a2.913 2.913 0 0 1 2.909-2.909h11.636a2.913 2.913 0 0 1 2.909 2.909v26.182m-17.454 0h17.455m-17.455 0H4.364a2.913 2.913 0 0 1-2.909-2.909v-8.727A2.913 2.913 0 0 1 4.364 16h2.909m17.454 14.545h2.909a2.913 2.913 0 0 0 2.909-2.909V14.545a2.913 2.913 0 0 0-2.909-2.909h-2.909M13.091 7.273h5.818m-5.818 5.818h5.818m-5.818 5.818h5.818m-5.818 5.818h5.818"/></symbol><symbol id="icon-propety" viewBox="0 0 33 32"><path fill="none" stroke="#fdd261" stroke-linecap="round" stroke-linejoin="round" stroke-width="2.207" d="M7.724 30.712V4.229a2.94 2.94 0 0 1 2.947-2.942h11.763a2.94 2.94 0 0 1 2.947 2.942v26.483m-17.657 0h17.655m-17.655 0H4.778a2.944 2.944 0 0 1-2.936-2.942v-8.828a2.941 2.941 0 0 1 2.936-2.943h2.946m17.655 14.713h2.946a2.94 2.94 0 0 0 2.935-2.942V14.529a2.941 2.941 0 0 0-2.935-2.943h-2.946M13.606 7.172h5.892m-5.892 5.885h5.892m-5.892 5.886h5.892m-5.892 5.885h5.892" style="stroke:var(--color2, #fdd261)"/></symbol><symbol id="icon-rocket" viewBox="0 0 32 32"><path fill="none" stroke="#3bb979" stroke-linecap="round" stroke-linejoin="round" stroke-width="2.207" d="m15.448 20.965-4.414-4.414m4.414 4.414a32.627 32.627 0 0 0 5.885-2.946m-5.885 2.946v7.36s4.458-.816 5.885-2.946c1.589-2.383 0-7.36 0-7.36m-10.299-1.467a32.383 32.383 0 0 1 2.942-5.815 18.964 18.964 0 0 1 6.934-6.554 18.948 18.948 0 0 1 9.25-2.339c0 3.994-1.148 11.035-8.828 16.177m-10.298-1.469H3.677s.809-4.458 2.943-5.881c2.383-1.589 7.356 0 7.356 0M4.414 23.172c-2.207 1.854-2.943 7.36-2.943 7.36s5.503-.739 7.357-2.946c1.044-1.236 1.03-3.134-.132-4.281a3.218 3.218 0 0 0-4.281-.133z" style="stroke:var(--color4, #3bb979)"/></symbol><symbol id="icon-submissions" viewBox="0 0 26 32"><path fill="none" stroke="currentColor" stroke-linecap="round" stroke-linejoin="round" stroke-width="2.909" d="m10.182 24.727 4.364-4.364m-.001.001L10.181 16m4.364 4.364H4.363a2.913 2.913 0 0 0-2.909 2.909v4.364a2.913 2.913 0 0 0 2.909 2.909h17.455a2.913 2.913 0 0 0 2.909-2.909V8.728l-7.273-7.273H4.363a2.913 2.913 0 0 0-2.909 2.909v10.182M16 1.455v5.818a2.913 2.913 0 0 0 2.909 2.909h5.818" /></symbol><symbol id="icon-umbrella" viewBox="0 0 31 32"><path fill="none" stroke="#b93b3b" stroke-linecap="round" stroke-linejoin="round" stroke-width="2.783" d="M15.304 16v11.13c0 .737.292 1.446.821 1.967.515.522 1.224.815 1.962.815s1.447-.294 1.962-.815a2.76 2.76 0 0 0 .821-1.967M15.304 2.087v1.391M29.217 16a13.972 13.972 0 0 0-4.577-8.896c-2.56-2.301-5.885-3.574-9.336-3.574S8.528 4.803 5.968 7.104A13.968 13.968 0 0 0 1.391 16h27.826z" style="stroke:var(--color7, #b93b3b)"/></symbol><symbol id="icon-wokers-comp" viewBox="0 0 26 32"><path fill="none" stroke="#6a3bf6" stroke-linecap="round" stroke-linejoin="round" stroke-width="1.655" d="M4.967 26.166a8.84 8.84 0 0 1 3.236-4.173 8.843 8.843 0 0 1 5.041-1.578 8.82 8.82 0 0 1 5.038 1.581 8.815 8.815 0 0 1 3.235 4.174m3.494-8.699c0 7.357-5.149 11.034-11.27 13.169-.32.108-.669.103-.985-.015-6.135-2.119-11.285-5.796-11.285-13.153V7.174a1.467 1.467 0 0 1 1.47-1.471c2.943 0 6.621-1.766 9.181-4.002a1.724 1.724 0 0 1 2.237 0c2.574 2.251 6.238 4.002 9.181 4.002a1.47 1.47 0 0 1 1.471 1.471v10.298zM13.24 20.414a5.885 5.885 0 1 0 .001-11.77 5.885 5.885 0 0 0-.001 11.77z" style="stroke:var(--color8, #6a3bf6)"/></symbol><symbol id="icon-accounts" viewBox="0 0 29 32"><path fill="none" stroke="currentColor" stroke-linecap="round" stroke-linejoin="round" stroke-width="2.909" d="M27.636 5.818c0 2.41-5.86 4.364-13.091 4.364S1.454 8.229 1.454 5.818m26.182 0c0-2.41-5.86-4.364-13.091-4.364S1.454 3.407 1.454 5.818m26.182 0v20.364c0 1.158-1.379 2.268-3.834 3.085-2.455.819-5.785 1.279-9.257 1.279s-6.801-.46-9.257-1.279c-2.455-.817-3.834-1.927-3.834-3.085V5.818M1.455 16c0 1.158 1.379 2.268 3.834 3.085 2.455.819 5.785 1.279 9.257 1.279s6.801-.46 9.257-1.279c2.455-.817 3.834-1.927 3.834-3.085" /></symbol><symbol id="icon-button-up" viewBox="0 0 32 32"><path fill="none" stroke="#3bb979" stroke-linecap="round" stroke-linejoin="round" stroke-width="2.133" d="M16 21.685V10.314m0 .001L21.689 16M16 10.315 10.31 16M16 1.781C8.145 1.781 1.777 8.149 1.777 16S8.145 30.219 16 30.219c7.854 0 14.222-6.368 14.222-14.219S23.854 1.781 16 1.781z" style="stroke:var(--color1, #3bb979)"/></symbol><symbol id="icon-table-workers" viewBox="0 0 24 32"><path fill="none" stroke="#e5e7eb" stroke-linecap="round" stroke-linejoin="round" stroke-width="2" d="M4.502 25.22a7.883 7.883 0 0 1 2.934-3.78A7.947 7.947 0 0 1 12.002 20m0 0c1.634 0 3.226.5 4.568 1.44a7.887 7.887 0 0 1 2.93 3.78M12.002 20a5.33 5.33 0 0 0 5.332-5.34c0-2.94-2.388-5.32-5.332-5.32a5.326 5.326 0 0 0-5.334 5.32A5.33 5.33 0 0 0 12.002 20zm10.666-2.66c0 6.66-4.668 10-10.214 11.92-.29.1-.606.1-.894 0C6 27.34 1.334 24 1.334 17.34V8c0-.36.14-.7.39-.94.25-.26.59-.4.944-.4 2.666 0 6-1.6 8.32-3.62.282-.24.642-.38 1.012-.38.372 0 .732.14 1.014.38 2.334 2.04 5.654 3.62 8.32 3.62.354 0 .692.14.942.4.25.24.392.58.392.94v9.34z" style="stroke:var(--color1, #e5e7eb)"/></symbol><symbol id="icon-table-general-umbrella" viewBox="0 0 24 32"><path fill="none" stroke="#e5e7eb" stroke-linecap="round" stroke-linejoin="round" stroke-width="2" d="m8 16 2.666 2.66L16 13.34m6.668 4c0 6.66-4.668 10-10.214 11.92-.29.1-.606.1-.894 0C6 27.34 1.334 24 1.334 17.34V8c0-.36.14-.7.39-.94.25-.26.59-.4.944-.4 2.666 0 6-1.6 8.32-3.62.282-.24.642-.38 1.012-.38.372 0 .732.14 1.014.38 2.334 2.04 5.654 3.62 8.32 3.62.354 0 .692.14.942.4.25.24.392.58.392.94v9.34z" style="stroke:var(--color1, #e5e7eb)"/></symbol><symbol id="icon-table-marine" viewBox="0 0 34 32"><path fill="none" stroke="#e5e7eb" stroke-linecap="round" stroke-linejoin="round" stroke-width="2.133" d="M17.067 12.715v5.419m0-5.419c.399 0 .791.086 1.154.235l11.646 5.184a16.47 16.47 0 0 1-2.304 8.533M17.067 12.715c-.397 0-.791.086-1.154.235L4.267 18.134a16.442 16.442 0 0 0 3.996 11.029m8.804-28.096v4.267m9.954 11.37V8.171a2.84 2.84 0 0 0-2.844-2.838H9.954A2.841 2.841 0 0 0 7.11 8.171v8.533M2.844 28.096c.853.704 1.707 1.408 3.556 1.408 3.554 0 3.554-2.838 7.11-2.838 1.85 0 2.703.704 3.556 1.429.853.704 1.707 1.408 3.554 1.408 3.556 0 3.556-2.838 7.113-2.838 1.847 0 2.701.704 3.554 1.429" style="stroke:var(--color1, #e5e7eb)"/></symbol><symbol id="icon-button-down" viewBox="0 0 32 32"><path fill="none" stroke="#fdd261" stroke-linecap="round" stroke-linejoin="round" stroke-width="2.133" d="M16 10.315v11.371m0-.001L10.315 16M16 21.685 21.685 16M16 30.219c7.851 0 14.219-6.368 14.219-14.219S23.851 1.781 16 1.781C8.149 1.781 1.781 8.149 1.781 16S8.149 30.219 16 30.219z" style="stroke:var(--color2, #fdd261)"/></symbol></defs></svg>
